<svg width="128" height="128" viewBox="0 0 128 128" fill="none" xmlns="http://www.w3.org/2000/svg">
<path d="M64 128C99.3462 128 128 99.3462 128 64C128 28.6538 99.3462 0 64 0C28.6538 0 0 28.6538 0 64C0 99.3462 28.6538 128 64 128Z" fill="#CEDDEA"/>
<path d="M95.0651 110.089H32.9347C29.1467 110.089 26.0754 107.018 26.0754 103.229V28.3495C26.0754 24.5615 29.1467 21.4902 32.9347 21.4902H95.0659C98.8539 21.4902 101.925 24.5615 101.925 28.3495V103.229C101.925 107.018 98.8539 110.089 95.0651 110.089Z" fill="white"/>
<path d="M40.1315 100.194H64.0001C65.0931 100.194 65.979 99.3083 65.979 98.2153C65.979 97.1222 65.0931 96.2363 64.0001 96.2363H40.1315C39.0385 96.2363 38.1526 97.1222 38.1526 98.2153C38.1526 99.3076 39.0385 100.194 40.1315 100.194Z" fill="#B9CCDB"/>
<path d="M39.6737 89.9421H64.4576C65.5716 89.9421 66.4746 89.0392 66.4746 87.9252C66.4746 86.8112 65.5716 85.9082 64.4576 85.9082H39.6737C38.5597 85.9082 37.6567 86.8112 37.6567 87.9252C37.6567 89.0392 38.5597 89.9421 39.6737 89.9421Z" fill="#B9CCDB"/>
<path d="M39.6737 78.9246H74.5355C75.6495 78.9246 76.5524 78.0216 76.5524 76.9076C76.5524 75.7936 75.6495 74.8906 74.5355 74.8906H39.6737C38.5597 74.8906 37.6567 75.7936 37.6567 76.9076C37.6567 78.0216 38.5597 78.9246 39.6737 78.9246Z" fill="#B9CCDB"/>
<path d="M39.6737 67.9089H88.3261C89.4401 67.9089 90.3431 67.006 90.3431 65.892C90.3431 64.778 89.4401 63.875 88.3261 63.875H39.6737C38.5597 63.875 37.6567 64.778 37.6567 65.892C37.6567 67.006 38.5597 67.9089 39.6737 67.9089Z" fill="#B9CCDB"/>
<path d="M39.9289 56.8933H88.0717C89.3261 56.8933 90.3438 55.9903 90.3438 54.8763C90.3438 53.7624 89.3268 52.8594 88.0717 52.8594H39.9289C38.6745 52.8594 37.6567 53.7624 37.6567 54.8763C37.6567 55.9903 38.6738 56.8933 39.9289 56.8933Z" fill="#B9CCDB"/>
<path d="M40.7846 45.8757H87.2152C88.9428 45.8757 90.3431 44.9728 90.3431 43.8588C90.3431 42.7448 88.9428 41.8418 87.2152 41.8418H40.7846C39.057 41.8418 37.6567 42.7448 37.6567 43.8588C37.6567 44.9728 39.057 45.8757 40.7846 45.8757Z" fill="#B9CCDB"/>
<path d="M41.2035 34.8601H86.7956C88.7544 34.8601 90.3431 33.9571 90.3431 32.8431C90.3431 31.7292 88.7551 30.8262 86.7956 30.8262H41.2035C39.2448 30.8262 37.656 31.7292 37.656 32.8431C37.6568 33.9571 39.2448 34.8601 41.2035 34.8601Z" fill="#B9CCDB"/>
<path d="M101.6 109.764C108.804 102.561 108.804 90.8809 101.6 83.677C94.396 76.4732 82.7163 76.4732 75.5124 83.677C68.3086 90.8808 68.3086 102.561 75.5124 109.764C82.7163 116.968 94.396 116.968 101.6 109.764Z" fill="#F94E38"/>
<path d="M81.024 104.253C80.3266 103.556 80.3266 102.425 81.024 101.727L93.5642 89.1871C94.2616 88.4897 95.3926 88.4897 96.09 89.1871C96.7874 89.8845 96.7874 91.0156 96.09 91.713L83.5499 104.253C82.8525 104.951 81.7214 104.951 81.024 104.253Z" fill="white"/>
<path d="M96.09 104.253C95.3926 104.951 94.2616 104.951 93.5642 104.253L81.024 91.713C80.3266 91.0156 80.3266 89.8845 81.024 89.1871C81.7214 88.4897 82.8525 88.4897 83.5499 89.1871L96.09 101.727C96.7882 102.425 96.7882 103.556 96.09 104.253Z" fill="white"/>
</svg>
